<svg xmlns="http://www.w3.org/2000/svg" viewBox="0 0 1024 1024" width="1024" height="1024"><rect width="1024" height="1024" fill="#F6F6F3"/><defs><clipPath id="e"><path d="M120 512 Q512 190 904 512 Q512 834 120 512Z"/></clipPath></defs><path d="M120 512 Q512 190 904 512 Q512 834 120 512Z" fill="#EFE3EA" stroke="#111111" stroke-width="5" stroke-linejoin="round"/><g clip-path="url(#e)"><circle cx="512" cy="512" r="150" fill="#111111"/><circle cx="620.0" cy="512.0" r="3.6" fill="#F6F6F3"/><circle cx="617.6" cy="534.5" r="3.6" fill="#F6F6F3"/><circle cx="610.7" cy="555.9" r="3.6" fill="#F6F6F3"/><circle cx="599.4" cy="575.5" r="3.6" fill="#F6F6F3"/><circle cx="584.3" cy="592.3" r="3.6" fill="#F6F6F3"/><circle cx="566.0" cy="605.5" r="3.6" fill="#F6F6F3"/><circle cx="545.4" cy="614.7" r="3.6" fill="#F6F6F3"/><circle cx="523.3" cy="619.4" r="3.6" fill="#F6F6F3"/><circle cx="500.7" cy="619.4" r="3.6" fill="#F6F6F3"/><circle cx="478.6" cy="614.7" r="3.6" fill="#F6F6F3"/><circle cx="458.0" cy="605.5" r="3.6" fill="#F6F6F3"/><circle cx="439.7" cy="592.3" r="3.6" fill="#F6F6F3"/><circle cx="424.6" cy="575.5" r="3.6" fill="#F6F6F3"/><circle cx="413.3" cy="555.9" r="3.6" fill="#F6F6F3"/><circle cx="406.4" cy="534.5" r="3.6" fill="#F6F6F3"/><circle cx="404.0" cy="512.0" r="3.6" fill="#F6F6F3"/><circle cx="406.4" cy="489.5" r="3.6" fill="#F6F6F3"/><circle cx="413.3" cy="468.1" r="3.6" fill="#F6F6F3"/><circle cx="424.6" cy="448.5" r="3.6" fill="#F6F6F3"/><circle cx="439.7" cy="431.7" r="3.6" fill="#F6F6F3"/><circle cx="458.0" cy="418.5" r="3.6" fill="#F6F6F3"/><circle cx="478.6" cy="409.3" r="3.6" fill="#F6F6F3"/><circle cx="500.7" cy="404.6" r="3.6" fill="#F6F6F3"/><circle cx="523.3" cy="404.6" r="3.6" fill="#F6F6F3"/><circle cx="545.4" cy="409.3" r="3.6" fill="#F6F6F3"/><circle cx="566.0" cy="418.5" r="3.6" fill="#F6F6F3"/><circle cx="584.3" cy="431.7" r="3.6" fill="#F6F6F3"/><circle cx="599.4" cy="448.5" r="3.6" fill="#F6F6F3"/><circle cx="610.7" cy="468.1" r="3.6" fill="#F6F6F3"/><circle cx="617.6" cy="489.5" r="3.6" fill="#F6F6F3"/><circle cx="582.6" cy="526.3" r="3.0" fill="#F6F6F3"/><circle cx="574.7" cy="547.4" r="3.0" fill="#F6F6F3"/><circle cx="560.7" cy="565.0" r="3.0" fill="#F6F6F3"/><circle cx="541.9" cy="577.5" r="3.0" fill="#F6F6F3"/><circle cx="520.2" cy="583.5" r="3.0" fill="#F6F6F3"/><circle cx="497.7" cy="582.6" r="3.0" fill="#F6F6F3"/><circle cx="476.6" cy="574.7" r="3.0" fill="#F6F6F3"/><circle cx="459.0" cy="560.7" r="3.0" fill="#F6F6F3"/><circle cx="446.5" cy="541.9" r="3.0" fill="#F6F6F3"/><circle cx="440.5" cy="520.2" r="3.0" fill="#F6F6F3"/><circle cx="441.4" cy="497.7" r="3.0" fill="#F6F6F3"/><circle cx="449.3" cy="476.6" r="3.0" fill="#F6F6F3"/><circle cx="463.3" cy="459.0" r="3.0" fill="#F6F6F3"/><circle cx="482.1" cy="446.5" r="3.0" fill="#F6F6F3"/><circle cx="503.8" cy="440.5" r="3.0" fill="#F6F6F3"/><circle cx="526.3" cy="441.4" r="3.0" fill="#F6F6F3"/><circle cx="547.4" cy="449.3" r="3.0" fill="#F6F6F3"/><circle cx="565.0" cy="463.3" r="3.0" fill="#F6F6F3"/><circle cx="577.5" cy="482.1" r="3.0" fill="#F6F6F3"/><circle cx="583.5" cy="503.8" r="3.0" fill="#F6F6F3"/><circle cx="512" cy="512" r="40" fill="#F6F6F3"/><circle cx="512" cy="512" r="24" fill="#111111"/></g></svg>